<svg width="600" height="400"><text x="300" y="20" text-anchor="middle" font-size="16">Scatter Plot</text><g transform="translate(40, 360)"><text x="280" y="40" text-anchor="middle">X Values</text><line x1="0" y1="400" x2="0" y2="390" /><text x="0" y="380" text-anchor="middle">1.00000000000000000000</text><line x1="150" y1="400" x2="150" y2="390" /><text x="150" y="380" text-anchor="middle">25.7500000000000000</text><line x1="300" y1="400" x2="300" y2="390" /><text x="300" y="380" text-anchor="middle">50.5000000000000000</text><line x1="450" y1="400" x2="450" y2="390" /><text x="450" y="380" text-anchor="middle">75.2500000000000000</text><line x1="600" y1="400" x2="600" y2="390" /><text x="600" y="380" text-anchor="middle">100.0000000000000000</text></g><g transform="translate(40, 40) rotate(-90)"><text x="200" y="-30" text-anchor="middle">Y Values</text><line x1="0" y1="0" x2="10" y2="0" /><text x="-20" y="0" text-anchor="end" dominant-baseline="middle">100.00000000000000000000</text><line x1="0" y1="100" x2="10" y2="100" /><text x="-20" y="100" text-anchor="end" dominant-baseline="middle">75.2500000000000000</text><line x1="0" y1="200" x2="10" y2="200" /><text x="-20" y="200" text-anchor="end" dominant-baseline="middle">50.5000000000000000</text><line x1="0" y1="300" x2="10" y2="300" /><text x="-20" y="300" text-anchor="end" dominant-baseline="middle">25.7500000000000000</text><line x1="0" y1="400" x2="10" y2="400" /><text x="-20" y="400" text-anchor="end" dominant-baseline="middle">1.0000000000000000</text></g><circle cx="0.0000000000000000" cy="400.0000000000000000" r="3" /><circle cx="6.0606060606060606" cy="395.9595959595959596" r="3" /><circle cx="12.1212121212121212" cy="391.9191919191919192" r="3" /><circle cx="18.1818181818181818" cy="387.8787878787878788" r="3" /><circle cx="24.2424242424242424" cy="383.8383838383838384" r="3" /><circle cx="30.3030303030303030" cy="379.7979797979797980" r="3" /><circle cx="36.3636363636363636" cy="375.7575757575757576" r="3" /><circle cx="42.4242424242424242" cy="371.7171717171717172" r="3" /><circle cx="48.4848484848484848" cy="367.6767676767676768" r="3" /><circle cx="54.5454545454545454" cy="363.6363636363636364" r="3" /><circle cx="60.6060606060606060" cy="359.5959595959595960" r="3" /><circle cx="66.6666666666666666" cy="355.5555555555555556" r="3" /><circle cx="72.7272727272727272" cy="351.5151515151515152" r="3" /><circle cx="78.7878787878787878" cy="347.4747474747474748" r="3" /><circle cx="84.8484848484848484" cy="343.4343434343434344" r="3" /><circle cx="90.9090909090909090" cy="339.3939393939393940" r="3" /><circle cx="96.9696969696969696" cy="335.3535353535353536" r="3" /><circle cx="103.0303030303030302" cy="331.3131313131313132" r="3" /><circle cx="109.0909090909090908" cy="327.2727272727272728" r="3" /><circle cx="115.1515151515151514" cy="323.2323232323232324" r="3" /><circle cx="121.2121212121212120" cy="319.1919191919191920" r="3" /><circle cx="127.2727272727272726" cy="315.1515151515151516" r="3" /><circle cx="133.3333333333333332" cy="311.1111111111111112" r="3" /><circle cx="139.3939393939393938" cy="307.0707070707070708" r="3" /><circle cx="145.4545454545454544" cy="303.0303030303030304" r="3" /><circle cx="151.5151515151515150" cy="298.9898989898989900" r="3" /><circle cx="157.5757575757575756" cy="294.9494949494949496" r="3" /><circle cx="163.6363636363636362" cy="290.9090909090909092" r="3" /><circle cx="169.6969696969696968" cy="286.8686868686868688" r="3" /><circle cx="175.7575757575757574" cy="282.8282828282828284" r="3" /><circle cx="181.8181818181818180" cy="278.7878787878787880" r="3" /><circle cx="187.8787878787878786" cy="274.7474747474747476" r="3" /><circle cx="193.9393939393939392" cy="270.7070707070707072" r="3" /><circle cx="199.9999999999999998" cy="266.6666666666666668" r="3" /><circle cx="206.0606060606060604" cy="262.6262626262626264" r="3" /><circle cx="212.1212121212121210" cy="258.5858585858585860" r="3" /><circle cx="218.1818181818181816" cy="254.5454545454545456" r="3" /><circle cx="224.2424242424242422" cy="250.5050505050505052" r="3" /><circle cx="230.3030303030303028" cy="246.4646464646464648" r="3" /><circle cx="236.3636363636363634" cy="242.4242424242424244" r="3" /><circle cx="242.4242424242424240" cy="238.3838383838383840" r="3" /><circle cx="248.4848484848484846" cy="234.3434343434343436" r="3" /><circle cx="254.5454545454545452" cy="230.3030303030303032" r="3" /><circle cx="260.6060606060606058" cy="226.2626262626262628" r="3" /><circle cx="266.6666666666666664" cy="222.2222222222222224" r="3" /><circle cx="272.7272727272727270" cy="218.1818181818181820" r="3" /><circle cx="278.7878787878787876" cy="214.1414141414141416" r="3" /><circle cx="284.8484848484848482" cy="210.1010101010101012" r="3" /><circle cx="290.9090909090909088" cy="206.0606060606060608" r="3" /><circle cx="296.9696969696969694" cy="202.0202020202020204" r="3" /><circle cx="303.0303030303030300" cy="197.9797979797979800" r="3" /><circle cx="309.0909090909090906" cy="193.9393939393939396" r="3" /><circle cx="315.1515151515151512" cy="189.8989898989898992" r="3" /><circle cx="321.2121212121212118" cy="185.8585858585858588" r="3" /><circle cx="327.2727272727272724" cy="181.8181818181818184" r="3" /><circle cx="333.3333333333333330" cy="177.7777777777777780" r="3" /><circle cx="339.3939393939393936" cy="173.7373737373737376" r="3" /><circle cx="345.4545454545454542" cy="169.6969696969696972" r="3" /><circle cx="351.5151515151515148" cy="165.6565656565656568" r="3" /><circle cx="357.5757575757575754" cy="161.6161616161616164" r="3" /><circle cx="363.6363636363636360" cy="157.5757575757575760" r="3" /><circle cx="369.6969696969696966" cy="153.5353535353535356" r="3" /><circle cx="375.7575757575757572" cy="149.4949494949494952" r="3" /><circle cx="381.8181818181818178" cy="145.4545454545454548" r="3" /><circle cx="387.8787878787878784" cy="141.4141414141414144" r="3" /><circle cx="393.9393939393939390" cy="137.3737373737373740" r="3" /><circle cx="399.9999999999999996" cy="133.3333333333333336" r="3" /><circle cx="406.0606060606060602" cy="129.2929292929292932" r="3" /><circle cx="412.1212121212121208" cy="125.2525252525252528" r="3" /><circle cx="418.1818181818181814" cy="121.2121212121212124" r="3" /><circle cx="424.2424242424242420" cy="117.1717171717171720" r="3" /><circle cx="430.3030303030303026" cy="113.1313131313131316" r="3" /><circle cx="436.3636363636363632" cy="109.0909090909090912" r="3" /><circle cx="442.4242424242424238" cy="105.0505050505050508" r="3" /><circle cx="448.4848484848484844" cy="101.0101010101010104" r="3" /><circle cx="454.5454545454545450" cy="96.9696969696969700" r="3" /><circle cx="460.6060606060606056" cy="92.9292929292929296" r="3" /><circle cx="466.6666666666666662" cy="88.8888888888888892" r="3" /><circle cx="472.7272727272727268" cy="84.8484848484848488" r="3" /><circle cx="478.7878787878787874" cy="80.8080808080808084" r="3" /><circle cx="484.8484848484848480" cy="76.7676767676767680" r="3" /><circle cx="490.9090909090909086" cy="72.7272727272727276" r="3" /><circle cx="496.9696969696969692" cy="68.6868686868686872" r="3" /><circle cx="503.0303030303030298" cy="64.6464646464646468" r="3" /><circle cx="509.0909090909090904" cy="60.6060606060606064" r="3" /><circle cx="515.1515151515151510" cy="56.5656565656565660" r="3" /><circle cx="521.2121212121212116" cy="52.5252525252525256" r="3" /><circle cx="527.2727272727272722" cy="48.4848484848484852" r="3" /><circle cx="533.3333333333333328" cy="44.4444444444444448" r="3" /><circle cx="539.3939393939393934" cy="40.4040404040404044" r="3" /><circle cx="545.4545454545454540" cy="36.3636363636363640" r="3" /><circle cx="551.5151515151515146" cy="32.3232323232323236" r="3" /><circle cx="557.5757575757575752" cy="28.2828282828282832" r="3" /><circle cx="563.6363636363636358" cy="24.2424242424242428" r="3" /><circle cx="569.6969696969696964" cy="20.2020202020202024" r="3" /><circle cx="575.7575757575757570" cy="16.1616161616161620" r="3" /><circle cx="581.8181818181818176" cy="12.1212121212121216" r="3" /><circle cx="587.8787878787878782" cy="8.0808080808080812" r="3" /><circle cx="593.9393939393939388" cy="4.0404040404040408" r="3" /><circle cx="599.9999999999999994" cy="0.0000000000000004" r="3" /></svg>
