<svg width="1010" height="260" viewBox="0 0 1010 260" fill="none" xmlns="http://www.w3.org/2000/svg">
<path d="M178 0.599987H132.15V98.95C127.25 89.85 113.25 77.6 83.5 77.6C34.85 77.6 0.900001 117.15 0.900001 167.55C0.900001 219.7 35.9 258.2 84.9 258.2C108 258.2 125.5 247.7 133.2 234.05C133.2 242.1 134.25 250.5 134.95 254H179.4C178.7 247 178 234.4 178 222.85V0.599987ZM47.8 167.55C47.8 136.75 66.7 119.25 90.5 119.25C114.3 119.25 132.85 136.4 132.85 167.2C132.85 198.35 114.3 216.55 90.5 216.55C66 216.55 47.8 198.35 47.8 167.55ZM273.648 254V233C282.748 247.7 300.948 258.2 324.748 258.2C373.748 258.2 405.948 219.35 405.948 167.2C405.948 116.1 376.898 77.25 326.498 77.25C300.948 77.25 282.048 88.45 274.348 100.7V0.599987H228.498V254H273.648ZM359.398 167.55C359.398 199.05 340.498 216.55 316.698 216.55C293.248 216.55 273.648 198.7 273.648 167.55C273.648 136.05 293.248 118.9 316.698 118.9C340.498 118.9 359.398 136.05 359.398 167.55ZM606.955 0.599987H561.105V98.95C556.205 89.85 542.205 77.6 512.455 77.6C463.805 77.6 429.855 117.15 429.855 167.55C429.855 219.7 464.855 258.2 513.855 258.2C536.955 258.2 554.455 247.7 562.155 234.05C562.155 242.1 563.205 250.5 563.905 254H608.355C607.655 247 606.955 234.4 606.955 222.85V0.599987ZM476.755 167.55C476.755 136.75 495.655 119.25 519.455 119.25C543.255 119.25 561.805 136.4 561.805 167.2C561.805 198.35 543.255 216.55 519.455 216.55C494.955 216.55 476.755 198.35 476.755 167.55ZM691.404 148.3C692.454 132.55 705.754 114.35 729.904 114.35C756.504 114.35 767.704 131.15 768.404 148.3H691.404ZM772.954 193.1C767.354 208.5 755.454 219.35 733.754 219.35C710.654 219.35 691.404 202.9 690.354 180.15H813.554C813.554 179.45 814.254 172.45 814.254 165.8C814.254 110.5 782.404 76.55 729.204 76.55C685.104 76.55 644.504 112.25 644.504 167.2C644.504 225.3 686.154 259.25 733.404 259.25C775.754 259.25 803.054 234.4 811.804 204.65L772.954 193.1ZM1009.89 81.8H960.893L919.943 197.3L877.243 81.8H826.143L896.493 254H943.043L1009.89 81.8Z" fill="#111111"/>
</svg>
