<svg width="1710" height="520" viewBox="0 0 1710 520" fill="none" xmlns="http://www.w3.org/2000/svg">
<path d="M262.705 40.0814L251.205 33.4419L239.705 40.0814L66.5 140.081L55 146.721V160V227.5V360V373.279L66.5 379.919L239.705 479.919L251.205 486.558L262.705 479.919L435.91 379.919L447.41 373.279V360V160V146.721L435.91 140.081L262.705 40.0814Z" fill="#DADADA" stroke="white" stroke-width="46"/>
<path d="M101 173.279L251.205 86.5581L401.41 173.279V346.721L251.205 433.442L101 346.721V227.5V173.279Z" fill="#DADADA" stroke="black" stroke-width="46"/>
<path d="M99.2475 152.143L254.746 243.352L331.05 197.677" stroke="black" stroke-width="45"/>
<path d="M76 159V270L167.835 215.716L76 159Z" fill="white"/>
<path d="M699 115.6H653.15V213.95C648.25 204.85 634.25 192.6 604.5 192.6C555.85 192.6 521.9 232.15 521.9 282.55C521.9 334.7 556.9 373.2 605.9 373.2C629 373.2 646.5 362.7 654.2 349.05C654.2 357.1 655.25 365.5 655.95 369H700.4C699.7 362 699 349.4 699 337.85V115.6ZM568.8 282.55C568.8 251.75 587.7 234.25 611.5 234.25C635.3 234.25 653.85 251.4 653.85 282.2C653.85 313.35 635.3 331.55 611.5 331.55C587 331.55 568.8 313.35 568.8 282.55ZM794.648 369V348C803.748 362.7 821.948 373.2 845.748 373.2C894.748 373.2 926.948 334.35 926.948 282.2C926.948 231.1 897.898 192.25 847.498 192.25C821.948 192.25 803.048 203.45 795.348 215.7V115.6H749.498V369H794.648ZM880.398 282.55C880.398 314.05 861.498 331.55 837.698 331.55C814.248 331.55 794.648 313.7 794.648 282.55C794.648 251.05 814.248 233.9 837.698 233.9C861.498 233.9 880.398 251.05 880.398 282.55ZM1127.96 115.6H1082.11V213.95C1077.21 204.85 1063.21 192.6 1033.46 192.6C984.805 192.6 950.855 232.15 950.855 282.55C950.855 334.7 985.855 373.2 1034.86 373.2C1057.96 373.2 1075.46 362.7 1083.16 349.05C1083.16 357.1 1084.21 365.5 1084.91 369H1129.36C1128.66 362 1127.96 349.4 1127.96 337.85V115.6ZM997.755 282.55C997.755 251.75 1016.66 234.25 1040.46 234.25C1064.26 234.25 1082.81 251.4 1082.81 282.2C1082.81 313.35 1064.26 331.55 1040.46 331.55C1015.96 331.55 997.755 313.35 997.755 282.55ZM1212.4 263.3C1213.45 247.55 1226.75 229.35 1250.9 229.35C1277.5 229.35 1288.7 246.15 1289.4 263.3H1212.4ZM1293.95 308.1C1288.35 323.5 1276.45 334.35 1254.75 334.35C1231.65 334.35 1212.4 317.9 1211.35 295.15H1334.55C1334.55 294.45 1335.25 287.45 1335.25 280.8C1335.25 225.5 1303.4 191.55 1250.2 191.55C1206.1 191.55 1165.5 227.25 1165.5 282.2C1165.5 340.3 1207.15 374.25 1254.4 374.25C1296.75 374.25 1324.05 349.4 1332.8 319.65L1293.95 308.1ZM1530.89 196.8H1481.89L1440.94 312.3L1398.24 196.8H1347.14L1417.49 369H1464.04L1530.89 196.8Z" fill="#111111"/>
</svg>
