<svg width="592" height="592" viewBox="0 0 592 592" fill="none" xmlns="http://www.w3.org/2000/svg">
<circle cx="296" cy="296" r="276" fill="white" stroke="white" stroke-width="40"/>
<mask id="path-2-inside-1_3_79" fill="white">
<path d="M572 296C572 448.431 448.431 572 296 572C143.569 572 20 448.431 20 296C20 143.569 143.569 20 296 20C448.431 20 572 143.569 572 296Z"/>
</mask>
<path d="M572 296C572 448.431 448.431 572 296 572C143.569 572 20 448.431 20 296C20 143.569 143.569 20 296 20C448.431 20 572 143.569 572 296Z" fill="white"/>
<path d="M93 474.5C93 362.662 183.662 272 295.5 272V232C161.571 232 53 340.571 53 474.5H93ZM295.5 272C407.338 272 498 362.662 498 474.5H538C538 340.571 429.429 232 295.5 232V272ZM532 296C532 426.339 426.339 532 296 532V612C470.522 612 612 470.522 612 296H532ZM296 532C165.661 532 60 426.339 60 296H-20C-20 470.522 121.478 612 296 612V532ZM60 296C60 165.661 165.661 60 296 60V-20C121.478 -20 -20 121.478 -20 296H60ZM296 60C426.339 60 532 165.661 532 296H612C612 121.478 470.522 -20 296 -20V60Z" fill="black" mask="url(#path-2-inside-1_3_79)"/>
<circle cx="296" cy="204" r="96" fill="#DADADA" stroke="black" stroke-width="40"/>
</svg>
